ffmpeg started on 2026-01-18 at 20:35:07
Report written to "C:\Dev\OSPanel\domains\Java-AT\modules\ffmpeg\FFMetrics\reports\psnr_report-6.txt"
Log level: 32
Command line:
ffmpeg -hide_banner -nostdin -r 24000/1001 -i "F:\\Convert\\files\\[DC] Make Heroine ga Oosugiru - 07_Telegram_HEVC(164).mkv" -r 24000/1001 -i "F:\\Convert\\files\\[DC] Make Heroine ga Oosugiru - 07_Telegram.mp4" -lavfi "[0:v]settb=AVTB,setpts=PTS-STARTPTS,format=pix_fmts=yuv420p10le,fps=24000/1001,scale=1920:1080:flags=lanczos:param0=3:out_range=limited:out_color_matrix=bt709:out_chroma_loc=left,setsar=1/1,setdar=(1920/1080)*(1/1),colorspace=format=yuv420p10:range=tv:primaries=bt709:trc=bt709:space=bt709:fast=0[main];[1:v]settb=AVTB,setpts=PTS-STARTPTS,format=pix_fmts=yuv420p,fps=24000/1001,scale=1920:1080:flags=lanczos:param0=3:out_range=limited:out_color_matrix=bt709:out_chroma_loc=left,setsar=1.000,setdar=1.778,colorspace=format=yuv420p:range=tv:primaries=bt709:trc=bt709:space=bt709:fast=0[ref];[main][ref]psnr=eof_action=endall:stats_file='C\\:/Dev/OSPanel/domains/Java-AT/modules/ffmpeg/FFMetrics/logs/psnr_logfile-6.txt'" -f null -
Input #0, matroska,webm, from 'F:\Convert\files\[DC] Make Heroine ga Oosugiru - 07_Telegram_HEVC(164).mkv':
  Metadata:
    COMPATIBLE_BRANDS: isomiso2avc1mp41
    MAJOR_BRAND     : isom
    MINOR_VERSION   : 512
    ENCODER         : Lavf61.7.100
  Duration: 00:24:06.79, start: -0.021000, bitrate: 986 kb/s
  Stream #0:0: Video: hevc (Main 10), yuv420p10le(tv, bt709, progressive), 1920x1080 [SAR 1:1 DAR 16:9], 23.98 fps, 23.98 tbr, 1k tbn (default)
      Metadata:
        HANDLER_NAME    : VideoHandler
        VENDOR_ID       : [0][0][0][0]
        ENCODER         : Lavc61.19.100 libx265
        BPS             : 789088
        DURATION        : 00:24:06.569708333
        NUMBER_OF_FRAMES: 34683
        NUMBER_OF_BYTES : 142683907
        _STATISTICS_WRITING_APP: mkvpropedit v94.0 ('Initiate') 64-bit
        _STATISTICS_WRITING_DATE_UTC: 2026-01-18 10:26:42
        _STATISTICS_TAGS: BPS DURATION NUMBER_OF_FRAMES NUMBER_OF_BYTES
  Stream #0:1: Audio: aac (LC), 48000 Hz, stereo, fltp (default)
      Metadata:
        HANDLER_NAME    : SoundHandler
        VENDOR_ID       : [0][0][0][0]
        ENCODER         : Lavc61.19.100 aac
        BPS             : 193194
        DURATION        : 00:24:06.784000000
        NUMBER_OF_FRAMES: 67819
        NUMBER_OF_BYTES : 34938755
        _STATISTICS_WRITING_APP: mkvpropedit v94.0 ('Initiate') 64-bit
        _STATISTICS_WRITING_DATE_UTC: 2026-01-18 10:26:42
        _STATISTICS_TAGS: BPS DURATION NUMBER_OF_FRAMES NUMBER_OF_BYTES
Input #1, mov,mp4,m4a,3gp,3g2,mj2, from 'F:\Convert\files\[DC] Make Heroine ga Oosugiru - 07_Telegram.mp4':
  Metadata:
    major_brand     : isom
    minor_version   : 512
    compatible_brands: isomiso2avc1mp41
    encoder         : Lavf60.16.100
  Duration: 00:24:06.74, start: 0.000000, bitrate: 3764 kb/s
  Stream #1:0[0x1](und): Video: h264 (High) (avc1 / 0x31637661), yuv420p(tv, bt709, progressive), 1920x1080 [SAR 1:1 DAR 16:9], 3616 kb/s, 23.98 fps, 23.98 tbr, 24k tbn (default)
      Metadata:
        handler_name    : VideoHandler
        vendor_id       : [0][0][0][0]
        encoder         : Lavc60.31.102 h264_qsv
  Stream #1:1[0x2](und): Audio: aac (HE-AACv2) (mp4a / 0x6134706D), 48000 Hz, stereo, fltp, 144 kb/s (default)
      Metadata:
        handler_name    : SoundHandler
        vendor_id       : [0][0][0][0]
Stream mapping:
  Stream #0:0 (hevc) -> settb:default
  Stream #1:0 (h264) -> settb:default
  psnr:default -> Stream #0:0 (wrapped_avframe)
  Stream #0:1 -> #0:1 (aac (native) -> pcm_s16le (native))
Output #0, null, to 'pipe:':
  Metadata:
    COMPATIBLE_BRANDS: isomiso2avc1mp41
    MAJOR_BRAND     : isom
    MINOR_VERSION   : 512
    encoder         : Lavf61.7.100
  Stream #0:0: Video: wrapped_avframe, yuv420p10le(tv, bt709, progressive), 1920x1080 [SAR 1:1 DAR 16:9], q=2-31, 200 kb/s, 23.98 fps, 23.98 tbn
      Metadata:
        encoder         : Lavc61.19.100 wrapped_avframe
  Stream #0:1: Audio: pcm_s16le, 48000 Hz, stereo, s16, 1536 kb/s (default)
      Metadata:
        HANDLER_NAME    : SoundHandler
        VENDOR_ID       : [0][0][0][0]
        _STATISTICS_TAGS: BPS DURATION NUMBER_OF_FRAMES NUMBER_OF_BYTES
        BPS             : 193194
        DURATION        : 00:24:06.784000000
        NUMBER_OF_FRAMES: 67819
        NUMBER_OF_BYTES : 34938755
        _STATISTICS_WRITING_APP: mkvpropedit v94.0 ('Initiate') 64-bit
        _STATISTICS_WRITING_DATE_UTC: 2026-01-18 10:26:42
        encoder         : Lavc61.19.100 pcm_s16le
frame=  144 fps=0.0 q=-0.0 size=N/A time=00:00:06.00 bitrate=N/A speed=11.7x    frame=  355 fps=341 q=-0.0 size=N/A time=00:00:14.80 bitrate=N/A speed=14.2x    frame=  562 fps=362 q=-0.0 size=N/A time=00:00:23.44 bitrate=N/A speed=15.1x    frame=  775 fps=375 q=-0.0 size=N/A time=00:00:32.32 bitrate=N/A speed=15.7x    frame=  948 fps=368 q=-0.0 size=N/A time=00:00:39.53 bitrate=N/A speed=15.3x    frame= 1110 fps=358 q=-0.0 size=N/A time=00:00:46.29 bitrate=N/A speed=14.9x    frame= 1272 fps=352 q=-0.0 size=N/A time=00:00:53.05 bitrate=N/A speed=14.7x    frame= 1445 fps=350 q=-0.0 size=N/A time=00:01:00.26 bitrate=N/A speed=14.6x    frame= 1598 fps=344 q=-0.0 size=N/A time=00:01:06.64 bitrate=N/A speed=14.3x    frame= 1762 fps=342 q=-0.0 size=N/A time=00:01:13.49 bitrate=N/A speed=14.2x    frame= 1925 fps=340 q=-0.0 size=N/A time=00:01:20.28 bitrate=N/A speed=14.2x    frame= 2077 fps=335 q=-0.0 size=N/A time=00:01:26.62 bitrate=N/A speed=  14x    frame= 2221 fps=331 q=-0.0 size=N/A time=00:01:32.63 bitrate=N/A speed=13.8x    frame= 2382 fps=330 q=-0.0 size=N/A time=00:01:39.34 bitrate=N/A speed=13.8x    frame= 2524 fps=326 q=-0.0 size=N/A time=00:01:45.27 bitrate=N/A speed=13.6x    frame= 2704 fps=327 q=-0.0 size=N/A time=00:01:52.77 bitrate=N/A speed=13.7x    frame= 2881 fps=328 q=-0.0 size=N/A time=00:02:00.16 bitrate=N/A speed=13.7x    frame= 3071 fps=331 q=-0.0 size=N/A time=00:02:08.08 bitrate=N/A speed=13.8x    frame= 3285 fps=335 q=-0.0 size=N/A time=00:02:17.01 bitrate=N/A speed=  14x    frame= 3495 fps=339 q=-0.0 size=N/A time=00:02:25.77 bitrate=N/A speed=14.1x    frame= 3704 fps=342 q=-0.0 size=N/A time=00:02:34.48 bitrate=N/A speed=14.3x    frame= 3910 fps=345 q=-0.0 size=N/A time=00:02:43.07 bitrate=N/A speed=14.4x    frame= 4114 fps=347 q=-0.0 size=N/A time=00:02:51.58 bitrate=N/A speed=14.5x    frame= 4332 fps=350 q=-0.0 size=N/A time=00:03:00.68 bitrate=N/A speed=14.6x    frame= 4535 fps=352 q=-0.0 size=N/A time=00:03:09.14 bitrate=N/A speed=14.7x    frame= 4749 fps=354 q=-0.0 size=N/A time=00:03:18.07 bitrate=N/A speed=14.8x    frame= 4951 fps=356 q=-0.0 size=N/A time=00:03:26.49 bitrate=N/A speed=14.8x    frame= 5164 fps=357 q=-0.0 size=N/A time=00:03:35.38 bitrate=N/A speed=14.9x    frame= 5363 fps=358 q=-0.0 size=N/A time=00:03:43.68 bitrate=N/A speed=  15x    frame= 5574 fps=360 q=-0.0 size=N/A time=00:03:52.48 bitrate=N/A speed=  15x    frame= 5779 fps=362 q=-0.0 size=N/A time=00:04:01.03 bitrate=N/A speed=15.1x    frame= 5994 fps=363 q=-0.0 size=N/A time=00:04:09.99 bitrate=N/A speed=15.1x    frame= 6191 fps=364 q=-0.0 size=N/A time=00:04:18.21 bitrate=N/A speed=15.2x    frame= 6404 fps=365 q=-0.0 size=N/A time=00:04:27.10 bitrate=N/A speed=15.2x    frame= 6615 fps=367 q=-0.0 size=N/A time=00:04:35.90 bitrate=N/A speed=15.3x    frame= 6828 fps=368 q=-0.0 size=N/A time=00:04:44.78 bitrate=N/A speed=15.3x    frame= 7035 fps=369 q=-0.0 size=N/A time=00:04:53.41 bitrate=N/A speed=15.4x    frame= 7228 fps=369 q=-0.0 size=N/A time=00:05:01.46 bitrate=N/A speed=15.4x    frame= 7431 fps=370 q=-0.0 size=N/A time=00:05:09.93 bitrate=N/A speed=15.4x    frame= 7634 fps=370 q=-0.0 size=N/A time=00:05:18.40 bitrate=N/A speed=15.4x    frame= 7831 fps=370 q=-0.0 size=N/A time=00:05:26.61 bitrate=N/A speed=15.4x    frame= 8035 fps=371 q=-0.0 size=N/A time=00:05:35.12 bitrate=N/A speed=15.5x    frame= 8234 fps=371 q=-0.0 size=N/A time=00:05:43.42 bitrate=N/A speed=15.5x    frame= 8444 fps=372 q=-0.0 size=N/A time=00:05:52.18 bitrate=N/A speed=15.5x    frame= 8645 fps=372 q=-0.0 size=N/A time=00:06:00.56 bitrate=N/A speed=15.5x    frame= 8846 fps=373 q=-0.0 size=N/A time=00:06:08.95 bitrate=N/A speed=15.6x    frame= 9053 fps=374 q=-0.0 size=N/A time=00:06:17.58 bitrate=N/A speed=15.6x    frame= 9263 fps=374 q=-0.0 size=N/A time=00:06:26.34 bitrate=N/A speed=15.6x    frame= 9465 fps=374 q=-0.0 size=N/A time=00:06:34.76 bitrate=N/A speed=15.6x    frame= 9670 fps=375 q=-0.0 size=N/A time=00:06:43.31 bitrate=N/A speed=15.6x    frame= 9875 fps=376 q=-0.0 size=N/A time=00:06:51.86 bitrate=N/A speed=15.7x    frame=10079 fps=376 q=-0.0 size=N/A time=00:07:00.37 bitrate=N/A speed=15.7x    frame=10287 fps=376 q=-0.0 size=N/A time=00:07:09.05 bitrate=N/A speed=15.7x    frame=10486 fps=376 q=-0.0 size=N/A time=00:07:17.35 bitrate=N/A speed=15.7x    frame=10685 fps=377 q=-0.0 size=N/A time=00:07:25.65 bitrate=N/A speed=15.7x    frame=10891 fps=377 q=-0.0 size=N/A time=00:07:34.24 bitrate=N/A speed=15.7x    frame=11096 fps=377 q=-0.0 size=N/A time=00:07:42.79 bitrate=N/A speed=15.7x    frame=11283 fps=377 q=-0.0 size=N/A time=00:07:50.59 bitrate=N/A speed=15.7x    frame=11487 fps=377 q=-0.0 size=N/A time=00:07:59.10 bitrate=N/A speed=15.7x    frame=11700 fps=378 q=-0.0 size=N/A time=00:08:07.98 bitrate=N/A speed=15.8x    frame=11907 fps=378 q=-0.0 size=N/A time=00:08:16.62 bitrate=N/A speed=15.8x    frame=12116 fps=379 q=-0.0 size=N/A time=00:08:25.33 bitrate=N/A speed=15.8x    frame=12318 fps=379 q=-0.0 size=N/A time=00:08:33.76 bitrate=N/A speed=15.8x    frame=12524 fps=379 q=-0.0 size=N/A time=00:08:42.35 bitrate=N/A speed=15.8x    frame=12734 fps=380 q=-0.0 size=N/A time=00:08:51.11 bitrate=N/A speed=15.8x    frame=12942 fps=380 q=-0.0 size=N/A time=00:08:59.78 bitrate=N/A speed=15.9x    frame=13148 fps=380 q=-0.0 size=N/A time=00:09:08.38 bitrate=N/A speed=15.9x    frame=13341 fps=380 q=-0.0 size=N/A time=00:09:16.43 bitrate=N/A speed=15.9x    frame=13547 fps=381 q=-0.0 size=N/A time=00:09:25.02 bitrate=N/A speed=15.9x    frame=13751 fps=381 q=-0.0 size=N/A time=00:09:33.53 bitrate=N/A speed=15.9x    frame=13951 fps=381 q=-0.0 size=N/A time=00:09:41.87 bitrate=N/A speed=15.9x    frame=14135 fps=381 q=-0.0 size=N/A time=00:09:49.54 bitrate=N/A speed=15.9x    frame=14342 fps=381 q=-0.0 size=N/A time=00:09:58.18 bitrate=N/A speed=15.9x    frame=14547 fps=381 q=-0.0 size=N/A time=00:10:06.73 bitrate=N/A speed=15.9x    frame=14745 fps=381 q=-0.0 size=N/A time=00:10:14.98 bitrate=N/A speed=15.9x    frame=14956 fps=381 q=-0.0 size=N/A time=00:10:23.78 bitrate=N/A speed=15.9x    frame=15136 fps=381 q=-0.0 size=N/A time=00:10:31.29 bitrate=N/A speed=15.9x    frame=15329 fps=381 q=-0.0 size=N/A time=00:10:39.34 bitrate=N/A speed=15.9x    frame=15523 fps=381 q=-0.0 size=N/A time=00:10:47.43 bitrate=N/A speed=15.9x    frame=15733 fps=381 q=-0.0 size=N/A time=00:10:56.19 bitrate=N/A speed=15.9x    frame=15943 fps=382 q=-0.0 size=N/A time=00:11:04.95 bitrate=N/A speed=15.9x    frame=16149 fps=382 q=-0.0 size=N/A time=00:11:13.54 bitrate=N/A speed=15.9x    frame=16354 fps=382 q=-0.0 size=N/A time=00:11:22.09 bitrate=N/A speed=15.9x    frame=16551 fps=382 q=-0.0 size=N/A time=00:11:30.31 bitrate=N/A speed=15.9x    frame=16757 fps=382 q=-0.0 size=N/A time=00:11:38.90 bitrate=N/A speed=15.9x    frame=16965 fps=382 q=-0.0 size=N/A time=00:11:47.58 bitrate=N/A speed=15.9x    frame=17172 fps=383 q=-0.0 size=N/A time=00:11:56.21 bitrate=N/A speed=  16x    frame=17376 fps=383 q=-0.0 size=N/A time=00:12:04.72 bitrate=N/A speed=  16x    frame=17581 fps=383 q=-0.0 size=N/A time=00:12:13.27 bitrate=N/A speed=  16x    frame=17773 fps=383 q=-0.0 size=N/A time=00:12:21.28 bitrate=N/A speed=  16x    frame=17984 fps=383 q=-0.0 size=N/A time=00:12:30.08 bitrate=N/A speed=  16x    frame=18183 fps=383 q=-0.0 size=N/A time=00:12:38.38 bitrate=N/A speed=  16x    frame=18376 fps=383 q=-0.0 size=N/A time=00:12:46.43 bitrate=N/A speed=  16x    frame=18574 fps=383 q=-0.0 size=N/A time=00:12:54.69 bitrate=N/A speed=  16x    frame=18789 fps=383 q=-0.0 size=N/A time=00:13:03.65 bitrate=N/A speed=  16x    frame=18994 fps=384 q=-0.0 size=N/A time=00:13:12.20 bitrate=N/A speed=  16x    frame=19208 fps=384 q=-0.0 size=N/A time=00:13:21.13 bitrate=N/A speed=  16x    frame=19418 fps=384 q=-0.0 size=N/A time=00:13:29.89 bitrate=N/A speed=  16x    frame=19617 fps=384 q=-0.0 size=N/A time=00:13:38.19 bitrate=N/A speed=  16x    frame=19831 fps=384 q=-0.0 size=N/A time=00:13:47.11 bitrate=N/A speed=  16x    frame=20043 fps=385 q=-0.0 size=N/A time=00:13:55.96 bitrate=N/A speed=  16x    frame=20255 fps=385 q=-0.0 size=N/A time=00:14:04.80 bitrate=N/A speed=16.1x    frame=20447 fps=385 q=-0.0 size=N/A time=00:14:12.81 bitrate=N/A speed=  16x    frame=20636 fps=385 q=-0.0 size=N/A time=00:14:20.69 bitrate=N/A speed=  16x    frame=20846 fps=385 q=-0.0 size=N/A time=00:14:29.45 bitrate=N/A speed=  16x    frame=21054 fps=385 q=-0.0 size=N/A time=00:14:38.12 bitrate=N/A speed=16.1x    frame=21256 fps=385 q=-0.0 size=N/A time=00:14:46.55 bitrate=N/A speed=16.1x    frame=21463 fps=385 q=-0.0 size=N/A time=00:14:55.18 bitrate=N/A speed=16.1x    frame=21671 fps=385 q=-0.0 size=N/A time=00:15:03.86 bitrate=N/A speed=16.1x    frame=21883 fps=386 q=-0.0 size=N/A time=00:15:12.70 bitrate=N/A speed=16.1x    frame=22085 fps=386 q=-0.0 size=N/A time=00:15:21.12 bitrate=N/A speed=16.1x    frame=22300 fps=386 q=-0.0 size=N/A time=00:15:30.09 bitrate=N/A speed=16.1x    frame=22507 fps=386 q=-0.0 size=N/A time=00:15:38.72 bitrate=N/A speed=16.1x    frame=22719 fps=386 q=-0.0 size=N/A time=00:15:47.57 bitrate=N/A speed=16.1x    frame=22914 fps=386 q=-0.0 size=N/A time=00:15:55.70 bitrate=N/A speed=16.1x    frame=23131 fps=386 q=-0.0 size=N/A time=00:16:04.75 bitrate=N/A speed=16.1x    frame=23336 fps=387 q=-0.0 size=N/A time=00:16:13.30 bitrate=N/A speed=16.1x    frame=23546 fps=387 q=-0.0 size=N/A time=00:16:22.06 bitrate=N/A speed=16.1x    frame=23749 fps=387 q=-0.0 size=N/A time=00:16:30.53 bitrate=N/A speed=16.1x    frame=23966 fps=387 q=-0.0 size=N/A time=00:16:39.58 bitrate=N/A speed=16.1x    frame=24163 fps=387 q=-0.0 size=N/A time=00:16:47.79 bitrate=N/A speed=16.1x    frame=24368 fps=387 q=-0.0 size=N/A time=00:16:56.34 bitrate=N/A speed=16.1x    frame=24577 fps=387 q=-0.0 size=N/A time=00:17:05.06 bitrate=N/A speed=16.2x    frame=24781 fps=387 q=-0.0 size=N/A time=00:17:13.57 bitrate=N/A speed=16.2x    frame=24992 fps=388 q=-0.0 size=N/A time=00:17:22.37 bitrate=N/A speed=16.2x    frame=25203 fps=388 q=-0.0 size=N/A time=00:17:31.17 bitrate=N/A speed=16.2x    frame=25409 fps=388 q=-0.0 size=N/A time=00:17:39.76 bitrate=N/A speed=16.2x    frame=25614 fps=388 q=-0.0 size=N/A time=00:17:48.31 bitrate=N/A speed=16.2x    frame=25822 fps=388 q=-0.0 size=N/A time=00:17:56.99 bitrate=N/A speed=16.2x    frame=26027 fps=388 q=-0.0 size=N/A time=00:18:05.54 bitrate=N/A speed=16.2x    frame=26237 fps=388 q=-0.0 size=N/A time=00:18:14.30 bitrate=N/A speed=16.2x    frame=26444 fps=388 q=-0.0 size=N/A time=00:18:22.93 bitrate=N/A speed=16.2x    frame=26658 fps=388 q=-0.0 size=N/A time=00:18:31.86 bitrate=N/A speed=16.2x    frame=26863 fps=389 q=-0.0 size=N/A time=00:18:40.41 bitrate=N/A speed=16.2x    frame=27051 fps=388 q=-0.0 size=N/A time=00:18:48.25 bitrate=N/A speed=16.2x    frame=27243 fps=388 q=-0.0 size=N/A time=00:18:56.26 bitrate=N/A speed=16.2x    frame=27444 fps=388 q=-0.0 size=N/A time=00:19:04.64 bitrate=N/A speed=16.2x    frame=27649 fps=388 q=-0.0 size=N/A time=00:19:13.19 bitrate=N/A speed=16.2x    frame=27849 fps=388 q=-0.0 size=N/A time=00:19:21.53 bitrate=N/A speed=16.2x    frame=28047 fps=388 q=-0.0 size=N/A time=00:19:29.79 bitrate=N/A speed=16.2x    frame=28245 fps=388 q=-0.0 size=N/A time=00:19:38.05 bitrate=N/A speed=16.2x    frame=28461 fps=388 q=-0.0 size=N/A time=00:19:47.06 bitrate=N/A speed=16.2x    frame=28658 fps=388 q=-0.0 size=N/A time=00:19:55.27 bitrate=N/A speed=16.2x    frame=28846 fps=388 q=-0.0 size=N/A time=00:20:03.11 bitrate=N/A speed=16.2x    frame=29015 fps=388 q=-0.0 size=N/A time=00:20:10.16 bitrate=N/A speed=16.2x    frame=29200 fps=388 q=-0.0 size=N/A time=00:20:17.88 bitrate=N/A speed=16.2x    frame=29394 fps=388 q=-0.0 size=N/A time=00:20:25.97 bitrate=N/A speed=16.2x    frame=29568 fps=387 q=-0.0 size=N/A time=00:20:33.23 bitrate=N/A speed=16.2x    frame=29752 fps=387 q=-0.0 size=N/A time=00:20:40.90 bitrate=N/A speed=16.1x    frame=29934 fps=387 q=-0.0 size=N/A time=00:20:48.49 bitrate=N/A speed=16.1x    frame=30111 fps=387 q=-0.0 size=N/A time=00:20:55.87 bitrate=N/A speed=16.1x    frame=30307 fps=387 q=-0.0 size=N/A time=00:21:04.05 bitrate=N/A speed=16.1x    frame=30510 fps=387 q=-0.0 size=N/A time=00:21:12.52 bitrate=N/A speed=16.1x    frame=30719 fps=387 q=-0.0 size=N/A time=00:21:21.23 bitrate=N/A speed=16.1x    frame=30928 fps=387 q=-0.0 size=N/A time=00:21:29.95 bitrate=N/A speed=16.1x    frame=31133 fps=387 q=-0.0 size=N/A time=00:21:38.50 bitrate=N/A speed=16.1x    frame=31331 fps=387 q=-0.0 size=N/A time=00:21:46.76 bitrate=N/A speed=16.1x    frame=31519 fps=387 q=-0.0 size=N/A time=00:21:54.60 bitrate=N/A speed=16.1x    frame=31727 fps=387 q=-0.0 size=N/A time=00:22:03.28 bitrate=N/A speed=16.1x    frame=31913 fps=387 q=-0.0 size=N/A time=00:22:11.03 bitrate=N/A speed=16.1x    frame=32111 fps=387 q=-0.0 size=N/A time=00:22:19.29 bitrate=N/A speed=16.1x    frame=32310 fps=387 q=-0.0 size=N/A time=00:22:27.59 bitrate=N/A speed=16.1x    frame=32517 fps=387 q=-0.0 size=N/A time=00:22:36.22 bitrate=N/A speed=16.1x    frame=32682 fps=386 q=-0.0 size=N/A time=00:22:43.11 bitrate=N/A speed=16.1x    frame=32849 fps=386 q=-0.0 size=N/A time=00:22:50.07 bitrate=N/A speed=16.1x    frame=33037 fps=386 q=-0.0 size=N/A time=00:22:57.91 bitrate=N/A speed=16.1x    frame=33230 fps=386 q=-0.0 size=N/A time=00:23:05.96 bitrate=N/A speed=16.1x    frame=33409 fps=386 q=-0.0 size=N/A time=00:23:13.43 bitrate=N/A speed=16.1x    frame=33570 fps=385 q=-0.0 size=N/A time=00:23:20.14 bitrate=N/A speed=16.1x    frame=33730 fps=385 q=-0.0 size=N/A time=00:23:26.82 bitrate=N/A speed=  16x    frame=33857 fps=384 q=-0.0 size=N/A time=00:23:32.11 bitrate=N/A speed=  16x    frame=34015 fps=383 q=-0.0 size=N/A time=00:23:38.70 bitrate=N/A speed=  16x    frame=34180 fps=383 q=-0.0 size=N/A time=00:23:45.59 bitrate=N/A speed=  16x    frame=34327 fps=382 q=-0.0 size=N/A time=00:23:51.72 bitrate=N/A speed=  16x    frame=34468 fps=382 q=-0.0 size=N/A time=00:23:57.60 bitrate=N/A speed=15.9x    frame=34660 fps=382 q=-0.0 size=N/A time=00:24:05.61 bitrate=N/A speed=15.9x    [Parsed_psnr_16 @ 000002d7a67ce000] PSNR y:48.967408 u:50.342493 v:50.392202 average:49.385819 min:38.010544 max:inf
[out#0/null @ 000002d79ebb3a00] video:14903KiB audio:271276KiB subtitle:0KiB other streams:0KiB global headers:0KiB muxing overhead: unknown
frame=34683 fps=382 q=-0.0 Lsize=N/A time=00:24:06.57 bitrate=N/A speed=15.9x    
